#!OML:ASF H:\Terrain\Patient Classification 1\Terrain2\Thursday\justin.ASF
:FULLY-SPECIFIED
:DEGREES
3018
root 18.4091 23.9378 20.7036 -179.596 4.3749 -181.061
lowerback 5.78366 0.719533 -1.87838
upperback 2.70896 1.03044 1.45558
thorax -0.511202 0.559433 2.48719
lowerneck -14.4762 -1.66933 -7.15173
upperneck 34.2903 3.0303 -0.148231
head 14.1179 1.43356 1.94877
rclavicle 7.25564e-015 -1.15295e-014
rhumerus -30.8004 -8.00165 -79.8838
rradius 26.9074
rwrist -10.2762
rhand -19.5136 13.4743
rfingers 7.12502
rthumb 6.80934 -16.3962
lclavicle 7.25564e-015 -1.15295e-014
lhumerus -34.7014 8.512 83.9888
lradius 27.1813
lwrist -0.710036
lhand -13.5314 21.9893
lfingers 7.12502
lthumb 12.5809 51.5904
rfemur -32.0952 -0.393018 19.3857
rtibia 46.5519
rfoot -18.5089 -6.20262
rtoes 6.53329
lfemur 3.35019 -5.525 -25.8095
ltibia 19.1557
lfoot -16.6811 -6.72592
ltoes 10.4928
3019
root 18.4152 23.9355 20.6451 -179.524 4.30422 -180.737
lowerback 5.64181 0.62435 -1.59153
upperback 2.85314 0.932635 1.56708
thorax -0.27629 0.513334 2.44971
lowerneck -14.8291 -1.65845 -7.21832
upperneck 34.4047 3.09788 -0.164186
head 14.2472 1.43593 1.97143
rclavicle 5.26779e-015 6.36111e-015
rhumerus -30.6083 -8.10031 -79.7649
rradius 26.5093
rwrist -10.159
rhand -19.4378 14.1619
rfingers 7.12502
rthumb 6.88258 -15.7062
lclavicle 5.26779e-015 6.36111e-015
lhumerus -34.5548 8.29393 84.1906
lradius 27.3637
lwrist -0.308211
lhand -13.4284 21.6431
lfingers 7.12502
lthumb 12.6802 51.2382
rfemur -32.2349 -0.188297 19.7202
rtibia 44.7731
rfoot -18.0997 -5.86244
rtoes 7.26359
lfemur 3.76749 -5.74384 -25.5071
ltibia 18.6982
lfoot -16.7521 -6.64476
ltoes 9.54633
3020
root 18.4233 23.9396 20.5877 -179.498 4.17874 -180.839
lowerback 5.63773 0.70972 -1.47966
upperback 3.14672 1.06795 1.31799
thorax 0.0269845 0.586005 2.12527
lowerneck -15.8874 -1.80554 -6.94048
upperneck 34.7343 2.79108 -0.0262507
head 14.6452 1.31061 1.94883
rclavicle -1.33186e-014 1.07344e-014
rhumerus -30.1525 -9.0594 -79.7813
rradius 26.0641
rwrist -9.90266
rhand -19.5818 14.4544
rfingers 7.12502
rthumb 6.74351 -15.4182
lclavicle -1.33186e-014 1.07344e-014
lhumerus -33.8628 7.4386 84.3103
lradius 27.3955
lwrist -0.103386
lhand -13.5786 21.5602
lfingers 7.12502
lthumb 12.5354 51.1642
rfemur -32.4178 -0.300309 19.6661
rtibia 43.0017
rfoot -17.5585 -5.4486
rtoes 7.06962
lfemur 4.14178 -5.4487 -25.5364
ltibia 18.2536
lfoot -16.6353 -7.14505
ltoes 9.72872
3021
root 18.4288 23.9445 20.5282 -179.409 4.02876 -180.895
lowerback 5.53448 0.481243 -1.78237
upperback 2.83905 0.728887 1.50019
thorax -0.221035 0.407604 2.50117
lowerneck -14.7064 -1.59899 -7.18234
upperneck 34.5593 3.21254 -0.122812
head 14.2845 1.50753 2.00601
rclavicle -7.05686e-015 -3.97569e-015
rhumerus -30.8047 -8.29635 -79.5921
rradius 25.898
rwrist -9.89085
rhand -19.8449 14.0812
rfingers 7.12502
rthumb 6.48951 -15.7994
lclavicle -7.05686e-015 -3.97569e-015
lhumerus -34.7829 8.13458 84.2085
lradius 27.6394
lwrist -0.358263
lhand -13.6041 21.8875
lfingers 7.12502
lthumb 12.5108 51.493
rfemur -32.6598 -0.548977 19.6891
rtibia 41.2707
rfoot -17.0323 -4.83068
rtoes 7.06381
lfemur 4.54286 -4.9522 -25.4509
ltibia 17.6164
lfoot -16.3224 -7.89814
ltoes 10.3023
3022
root 18.4314 23.9434 20.4603 -179.389 4.0735 -181.011
lowerback 5.41677 0.562395 -1.82693
upperback 2.95594 0.840542 1.41022
thorax -0.0408576 0.46237 2.42935
lowerneck -14.7547 -1.64974 -7.13652
upperneck 34.4883 3.08491 -0.0899881
head 14.2664 1.45631 1.98792
rclavicle -1.10325e-014 1.19271e-014
rhumerus -30.7731 -8.93395 -79.4249
rradius 25.6806
rwrist -9.49731
rhand -19.8702 13.702
rfingers 7.12502
rthumb 6.46509 -16.1794
lclavicle -1.10325e-014 1.19271e-014
lhumerus -34.6144 7.93345 84.2627
lradius 27.7703
lwrist -0.494596
lhand -13.5287 22.1753
lfingers 7.12502
lthumb 12.5836 51.7763
rfemur -32.8521 -0.61089 19.6259
rtibia 39.6121
rfoot -16.5985 -4.41352
rtoes 6.88851
lfemur 5.1135 -4.75691 -25.5795
ltibia 16.9234
lfoot -16.1848 -8.09211
ltoes 10.2974
3023
root 18.4359 23.9409 20.3941 -179.503 3.93873 -181.212
lowerback 5.57276 0.450187 -2.13378
upperback 2.84999 0.668673 1.44511
thorax -0.229865 0.374112 2.64557
lowerneck -14.401 -1.60474 -7.12658
upperneck 34.6145 3.28035 -0.278632
head 14.2452 1.54397 1.94478
rclavicle -2.5842e-015 1.43125e-014
rhumerus -31.0836 -9.0671 -79.1411
rradius 25.313
rwrist -8.86088
rhand -19.9759 13.3057
rfingers 7.12502
rthumb 6.36308 -16.5787
lclavicle -2.5842e-015 1.43125e-014
lhumerus -35.017 7.84898 84.4139
lradius 28.0007
lwrist -0.138907
lhand -13.8874 22.1687
lfingers 7.12502
lthumb 12.2377 51.7907
rfemur -32.899 -0.708481 19.4324
rtibia 38.0251
rfoot -16.2097 -4.12607
rtoes 6.89984
lfemur 5.7462 -4.96873 -25.8757
ltibia 16.3772
lfoot -16.1602 -7.95289
ltoes 10.5337
3024
root 18.4477 23.9332 20.3368 -179.391 3.59795 -181.277
lowerback 5.52494 0.234721 -2.45204
upperback 2.63534 0.353533 1.58524
thorax -0.406346 0.211855 2.98735
lowerneck -13.8697 -1.49361 -7.16848
upperneck 34.732 3.56637 -0.388837
head 14.1741 1.68494 1.95432
rclavicle -5.06901e-015 -3.57812e-015
rhumerus -31.425 -8.99294 -78.8447
rradius 24.8356
rwrist -8.26922
rhand -20.1686 13.2796
rfingers 7.12502
rthumb 6.17705 -16.6104
lclavicle -5.06901e-015 -3.57812e-015
lhumerus -35.4106 7.9473 84.5648
lradius 28.0568
lwrist 0.249136
lhand -14.1458 22.082
lfingers 7.12502
lthumb 11.9886 51.7187
rfemur -33.0972 -0.795965 19.3612
rtibia 36.5093
rfoot -16.0028 -3.68059
rtoes 7.67845
lfemur 6.09153 -5.0534 -25.8631
ltibia 15.804
lfoot -16.057 -8.2053
ltoes 10.2751
3025
root 18.4614 23.9249 20.2797 -179.048 3.28149 -181.305
lowerback 5.18434 0.441395 -2.13254
upperback 3.02045 0.667516 1.24917
thorax 0.163761 0.36975 2.4474
lowerneck -15.2681 -1.76905 -6.77141
upperneck 34.9813 2.94745 -0.1399
head 14.6182 1.43067 1.907
rclavicle -3.18055e-015 -3.57812e-015
rhumerus -30.7689 -10.7853 -78.8495
rradius 24.525
rwrist -7.91165
rhand -19.9206 13.6256
rfingers 7.12502
rthumb 6.4165 -16.2572
lclavicle -3.18055e-015 -3.57812e-015
lhumerus -34.0281 6.77734 84.7168
lradius 27.819
lwrist 0.238534
lhand -13.6684 21.9138
lfingers 7.12502
lthumb 12.4488 51.523
rfemur -33.4719 -0.679324 19.2584
rtibia 35.0288
rfoot -15.9984 -3.25756
rtoes 9.11121
lfemur 6.16643 -4.73058 -25.6704
ltibia 15.2395
lfoot -15.9669 -8.91165
ltoes 9.63403
3026
root 18.4686 23.9198 20.2137 -178.989 3.11741 -181.215
lowerback 5.16429 0.345676 -2.21564
upperback 2.98861 0.536962 1.40457
thorax 0.148111 0.30267 2.66095
lowerneck -15.2066 -1.77691 -6.81232
upperneck 35.0076 3.04515 -0.344723
head 14.6211 1.4455 1.84743
rclavicle 5.06901e-015 -4.77083e-015
rhumerus -30.9684 -10.4302 -78.7598
rradius 24.5387
rwrist -8.12161
rhand -19.8402 13.2303
rfingers 7.12502
rthumb 6.49407 -16.6501
lclavicle 5.06901e-015 -4.77083e-015
lhumerus -34.2417 7.00125 84.8418
lradius 28.0293
lwrist 0.0460299
lhand -13.2661 21.6983
lfingers 7.12502
lthumb 12.8367 51.2836
rfemur -33.5403 -0.393454 19.2423
rtibia 33.5526
rfoot -15.9133 -3.05319
rtoes 9.34501
lfemur 6.55046 -4.59484 -25.4989
ltibia 14.8163
lfoot -15.8376 -9.29228
ltoes 10.5265
3027
root 18.4726 23.9119 20.1428 -179.1 3.12638 -181.104
lowerback 5.2485 0.259272 -2.1984
upperback 2.95696 0.423215 1.54113
thorax 0.0751153 0.246983 2.79729
lowerneck -14.7834 -1.71972 -6.9966
upperneck 34.848 3.17881 -0.398265
head 14.4482 1.48888 1.8701
rclavicle 2.08724e-015 5.56597e-015
rhumerus -31.2799 -9.85015 -78.7478
rradius 24.469
rwrist -8.32803
rhand -20.0602 12.9442
rfingers 7.12502
rthumb 6.2817 -16.9426
lclavicle 2.08724e-015 5.56597e-015
lhumerus -34.5818 7.14679 84.9862
lradius 28.196
lwrist 0.146146
lhand -13.3981 21.6238
lfingers 7.12502
lthumb 12.7095 51.217
rfemur -33.4852 -0.244088 19.3571
rtibia 32.1159
rfoot -15.5557 -2.73736
rtoes 7.36139
lfemur 7.24737 -4.71036 -25.4765
ltibia 14.2917
lfoot -15.7982 -9.05386
ltoes 11.0401
